# xmcd
#
# Track frame offsets:
# 150
# 13933
# 29572
# 43663
# 59758
# 75853
# 92146
# 106598
# 122456
# 137920
#
# Disc length: 2066 seconds
#
#
# Revision: 0
# Processed by: cddbd v1.5.2PL0 Copyright (c) Steve Scherf et al.
# Submitted via: FreeRIP 2.945 
#
DISCID=7d08100a
DTITLE=Dixie Chicks - Shouldn't A Told You That
DYEAR=1900
DGENRE=Country
TTITLE0=Whistles and Bells
TTITLE1=I'm Falling Again
TTITLE2=Shouldn't a Told You That
TTITLE3=Desire
TTITLE4=There Goes My Dream
TTITLE5=One Heart Away
TTITLE6=The Thrill Is In The Chase
TTITLE7=I Wasn't Looking For You
TTITLE8=I've Only Got Myself To Blame
TTITLE9=Planet Of Love
EXTD=
EXTT0=
EXTT1=
EXTT2=
EXTT3=
EXTT4=
EXTT5=
EXTT6=
EXTT7=
EXTT8=
EXTT9=
PLAYORDER=
